<svg width="70" height="71" viewBox="0 0 70 71" fill="none" xmlns="http://www.w3.org/2000/svg">
<rect y="0.496094" width="69.999" height="69.999" rx="14" fill="#1877F2"/>
<rect y="0.496094" width="69.999" height="69.999" rx="14" fill="url(#paint0_radial_292_12847)"/>
<path d="M27.3063 35.4953C27.3063 31.2456 30.7504 27.7996 35.0001 27.7996C39.2498 27.7996 42.6958 31.2456 42.6958 35.4953C42.6958 39.7449 39.2498 43.1909 35.0001 43.1909C30.7504 43.1909 27.3063 39.7449 27.3063 35.4953ZM23.1462 35.4953C23.1462 42.0422 28.4532 47.3492 35.0001 47.3492C41.5471 47.3492 46.8541 42.0422 46.8541 35.4953C46.8541 28.9483 41.5471 23.6413 35.0001 23.6413C28.4532 23.6413 23.1464 28.948 23.1464 35.4953M44.5533 23.1713C44.5531 23.7192 44.7153 24.2549 45.0196 24.7106C45.3238 25.1662 45.7563 25.5215 46.2624 25.7313C46.7685 25.9412 47.3255 25.9963 47.8629 25.8896C48.4003 25.783 48.894 25.5193 49.2816 25.132C49.6691 24.7448 49.9332 24.2513 50.0403 23.714C50.1474 23.1766 50.0927 22.6196 49.8833 22.1133C49.6738 21.6071 49.3189 21.1743 48.8635 20.8697C48.408 20.5651 47.8725 20.4024 47.3246 20.4022H47.3235C46.5891 20.4026 45.8849 20.6944 45.3654 21.2136C44.846 21.7328 44.5539 22.4369 44.5533 23.1713ZM25.6738 54.2861C23.4231 54.1837 22.1997 53.8088 21.3868 53.492C20.309 53.0724 19.54 52.5727 18.7314 51.7653C17.9229 50.9578 17.4224 50.1896 17.0047 49.1118C16.6877 48.2992 16.3128 47.0755 16.2105 44.8248C16.0986 42.3914 16.0763 41.6604 16.0763 35.4956C16.0763 29.3308 16.1005 28.6019 16.2105 26.1665C16.313 23.9158 16.6907 22.6945 17.0047 21.8795C17.4243 20.8017 17.924 20.0327 18.7314 19.2241C19.5388 18.4156 20.3071 17.9151 21.3868 17.4974C22.1994 17.1805 23.4231 16.8056 25.6738 16.7032C28.1071 16.5913 28.8381 16.569 35.0001 16.569C41.1622 16.569 41.8939 16.5928 44.3293 16.7036C46.58 16.8061 47.8013 17.1838 48.6163 17.4977C49.6941 17.9155 50.4631 18.4171 51.2716 19.2245C52.0801 20.0319 52.5788 20.8021 52.9984 21.8798C53.3153 22.6924 53.6902 23.9161 53.7925 26.1668C53.9044 28.6022 53.9268 29.3312 53.9268 35.496C53.9268 41.6608 53.9044 42.3898 53.7925 44.8251C53.69 47.0758 53.3133 48.2992 52.9984 49.1121C52.5788 50.1899 52.079 50.9589 51.2716 51.7656C50.4642 52.5723 49.6941 53.0728 48.6163 53.4924C47.8037 53.8093 46.58 54.1842 44.3293 54.2865C41.8959 54.3984 41.165 54.4208 35.0001 54.4208C28.8353 54.4208 28.1064 54.3984 25.6738 54.2865M25.4826 12.55C23.0251 12.6619 21.3458 13.0516 19.8792 13.6222C18.3613 14.2115 17.0746 15.0022 15.7898 16.2849C14.505 17.5677 13.7164 18.8546 13.1271 20.3743C12.5564 21.8418 12.1668 23.5202 12.0548 25.9777C11.9411 28.4392 11.915 29.2261 11.915 35.4953C11.915 41.7644 11.9411 42.5514 12.0548 45.0128C12.1668 47.4705 12.5564 49.1487 13.1271 50.6162C13.7164 52.1341 14.5052 53.4233 15.7898 54.7056C17.0745 55.9878 18.3595 56.7773 19.8792 57.3683C21.3485 57.9389 23.0251 58.3286 25.4826 58.4405C27.9453 58.5525 28.731 58.5803 35.0001 58.5803C41.2693 58.5803 42.0562 58.5543 44.5177 58.4405C46.9754 58.3286 48.6536 57.9389 50.1211 57.3683C51.6389 56.7773 52.9256 55.9883 54.2104 54.7056C55.4953 53.4228 56.2822 52.1341 56.8732 50.6162C57.4438 49.1487 57.8354 47.4703 57.9454 45.0128C58.0573 42.5495 58.0834 41.7644 58.0834 35.4953C58.0834 29.2261 58.0573 28.4392 57.9454 25.9777C57.8335 23.52 57.4438 21.8409 56.8732 20.3743C56.2822 18.8564 55.4932 17.5698 54.2104 16.2849C52.9277 15.0001 51.6389 14.2115 50.1229 13.6222C48.6536 13.0516 46.9752 12.66 44.5195 12.55C42.0577 12.4375 41.2712 12.4102 35.0029 12.4102C28.7347 12.4102 27.9463 12.4362 25.4835 12.55" fill="white"/>
<defs>
<radialGradient id="paint0_radial_292_12847" cx="0" cy="0" r="1" gradientUnits="userSpaceOnUse" gradientTransform="translate(4.53027 68.9617) scale(88.8728)">
<stop offset="0.09" stop-color="#FA8F21"/>
<stop offset="0.78" stop-color="#D82D7E"/>
</radialGradient>
</defs>
</svg>
