<svg width="70" height="71" viewBox="0 0 70 71" fill="none" xmlns="http://www.w3.org/2000/svg">
<rect x="-0.00683594" y="0.496094" width="69.999" height="69.999" rx="14" fill="#0A66C2"/>
<g clip-path="url(#clip0_292_12933)">
<path d="M14.5767 20.5267C14.5767 19.2129 15.0365 18.129 15.9561 17.2751C16.8758 16.4211 18.0714 15.9941 19.5428 15.9941C20.988 15.9941 22.1572 16.4145 23.0506 17.2554C23.9703 18.1225 24.4301 19.2523 24.4301 20.645C24.4301 21.9062 23.9834 22.9572 23.0901 23.7981C22.1704 24.6652 20.9617 25.0987 19.464 25.0987H19.4246C17.9794 25.0987 16.8101 24.6652 15.9167 23.7981C15.0233 22.931 14.5767 21.8405 14.5767 20.5267ZM15.089 55.0139L15.089 28.6854H23.8389V55.0139H15.089ZM28.6868 55.0139H37.4367V40.3125C37.4367 39.3928 37.5418 38.6834 37.752 38.1841C38.1199 37.2908 38.6782 36.5353 39.4271 35.9178C40.176 35.3004 41.1153 34.9916 42.2452 34.9916C45.1881 34.9916 46.6595 36.9754 46.6595 40.9431V55.0139H55.4094V39.9184C55.4094 36.0295 54.4898 33.0801 52.6505 31.0699C50.8111 29.0598 48.3806 28.0548 45.3589 28.0548C41.9693 28.0548 39.3286 29.5131 37.4367 32.4297V32.5086H37.3973L37.4367 32.4297V28.6854H28.6868C28.7394 29.5262 28.7657 32.1407 28.7657 36.5288C28.7657 40.9168 28.7394 47.0785 28.6868 55.0139Z" fill="white"/>
</g>
<defs>
<clipPath id="clip0_292_12933">
<rect x="14.5767" y="15.0801" width="40.8328" height="40.8328" fill="white"/>
</clipPath>
</defs>
</svg>
