<svg width="1295" height="337" viewBox="0 0 1295 337" fill="none" xmlns="http://www.w3.org/2000/svg">
<path d="M1 8.00001C1 3.58173 4.58172 0 9 0H475.756C484.552 0 486.905 12.1311 478.747 15.4199L11.991 203.57C6.73321 205.689 1 201.819 1 196.15V8.00001Z" fill="#D9D9D9"/>
<path d="M1294 8.00001C1294 3.58173 1290.42 0 1286 0H819.244C810.448 0 808.095 12.1311 816.253 15.4199L1283.01 203.57C1288.27 205.689 1294 201.819 1294 196.15V8.00001Z" fill="#D9D9D9"/>
<path d="M0 235.605C0 231.919 2.24764 228.606 5.67248 227.243L501.218 30.055C509.506 26.7571 517.027 36.2287 511.936 43.5534L319.934 319.827C312.458 330.585 300.188 337 287.088 337H8.99999C4.02943 337 0 332.971 0 328V235.605Z" fill="#D9D9D9"/>
<path d="M1295 235.605C1295 231.919 1292.75 228.606 1289.33 227.243L793.782 30.055C785.494 26.7571 777.973 36.2287 783.064 43.5534L975.066 319.827C982.542 330.585 994.812 337 1007.91 337H1286C1290.97 337 1295 332.971 1295 328V235.605Z" fill="#D9D9D9"/>
<path d="M526.56 51.0628C530.481 45.3876 536.94 42 543.838 42H748.928C755.857 42 762.341 45.4181 766.255 51.1353L945.926 313.525C952.742 323.48 945.614 337 933.549 337H357.596C345.502 337 338.381 323.423 345.255 313.473L526.56 51.0628Z" fill="#D9D9D9"/>
</svg>
